# xmcd
#
# Track frame offsets:
#	150
#	13876
#	27830
#	45028
#	63271
#	74026
#	93284
#	102638
#	117408
#	131650
#	149912
#	162010
#	180599
#	197159
#	225506
#
# Disc length: 3239 seconds
#
# Revision: 0
# Processed by: cddbd v1.5.2PL0 Copyright (c) Steve Scherf et al.
# Submitted via: audiograbber 1.82.01
#
DISCID=d30ca50f
DTITLE=Νίκος Γεωργάκης - ΑΝΑΣΑ ΚΑΛΟΚΑΙΡΙΟΥ
DYEAR=2007
DGENRE=
TTITLE0=Λιζέτα Καλημέρη - Ανάσα καλοκαιριού
TTITLE1=Νίκος Γεωργάκης - Το τραγούδι των θεριστών
TTITLE2=Ορχηστρικό - Tango
TTITLE3=Νίκος Γεωργάκης - Κατευόδιο στην Παλαιστίνη
TTITLE4=Λυδία Φωτοπούλου - Το αερόπλοιο
TTITLE5=Νίκος Γεωργάκης - Γνωριμία
TTITLE6=Λιζέτα Καλημέρη - Κοίτα τους
TTITLE7=Λυδία Φωτοπούλου - Το παγκάκι
TTITLE8=Τάσος Μισυρλής - Το κλειδί
TTITLE9=Νίκος Γεωργάκης - Περίπατος
TTITLE10=Απόστολος Δεληγεώργης - Στη στοά Μοδιάνο
TTITLE11=Λιζέτα Καλημέρη - Περπατώ μονάχος
TTITLE12=Απόστολος Δεληγεώργης - Λογαριασμοί
TTITLE13=Νίκος Γεωργάκης - Πιές κρασί
TTITLE14=Video - Data Track
EXTD=
EXTT0=
EXTT1=
EXTT2=
EXTT3=
EXTT4=
EXTT5=
EXTT6=
EXTT7=
EXTT8=
EXTT9=
EXTT10=
EXTT11=
EXTT12=
EXTT13=
EXTT14=
PLAYORDER=
